# xmcd CD database file
#
# Track frame offsets:
#	150
#	25272
#	43284
#	63790
#	80759
#	100853
#	118084
#	136333
#	156516
#	175461
#	193071
#
# Disc length: 2803 seconds
#
# Revision: 0
# Processed by: cddbd v1.5.2PL0 Copyright (c) Steve Scherf et al.
# Submitted via: CDex 1.51
#
DISCID=9d0af10b
DTITLE=Tad Robinson - A New Point of View
DYEAR=2007
DGENRE=Blues
TTITLE0=Long Way Home
TTITLE1=Ain't That Loving You (For More Reasons Than One)
TTITLE2=Up And Down World
TTITLE3=You Get To Keep The Love
TTITLE4=He's Movin' In (To Her Life)
TTITLE5=More Good Than Bad
TTITLE6=Two Of A Kind Blues
TTITLE7=Broken-Hearted Man
TTITLE8=When You're Ready
TTITLE9=Love Is Everything
TTITLE10=Back For More
EXTD=YEAR: 2007
EXTT0=
EXTT1=
EXTT2=
EXTT3=
EXTT4=
EXTT5=
EXTT6=
EXTT7=
EXTT8=
EXTT9=
EXTT10=
PLAYORDER=
